# xmcd
#
# Track frame offsets:
#        150
#        14555
#        27585
#        39550
#        53720
#        67012
#        80010
#        92797
#        103980
#        116185
#        130242
#        141997
#        154737
#        168935
#        181797
#        194982
#        205692
#        216367
#        229622
#        240697
#        253162
#        267502
#        279087
#        292782
#        306902
#        318245
#
# Disc length: 4422 seconds
#
# Revision: 0
# Processed by: cddbd v1.5.1PL0 Copyright (c) Steve Scherf et al.
# Submitted via: ExactAudioCopy v0.95a5
#
DISCID=8b11441a
DTITLE=SleepyJohn Estes - Complete Recorded Works In Chronological Ord
DTITLE=er - Volume 2
DYEAR=1994
DGENRE=Blues
TTITLE0=Floating Bridge
TTITLE1=Need More Blues
TTITLE2=Jack And Jill Blues
TTITLE3=Poor Man's Friend (T Model)
TTITLE4=Hobo Jungle Blues
TTITLE5=Airplane Blues
TTITLE6=Everybody Oughta Make A Change
TTITLE7=Liquor Store Blues
TTITLE8=Easin' Back To Tennessee
TTITLE9=Fire Department Blues
TTITLE10=Clean Up At Home
TTITLE11=New Someday Baby
TTITLE12=Brownsville Blues
TTITLE13=Special Agent (Railroad Police Blues)
TTITLE14=Mailman Blues
TTITLE15=Time Is Drawing Near
TTITLE16=Mary Come On Home
TTITLE17=Jailhouse Blues
TTITLE18=Tell Me How About It (Mr. Tom's Blues)
TTITLE19=Drop Down (I Don't Feel Welcome Here
TTITLE20=Don't You Want To Know
TTITLE21=You Souldn't Do That
TTITLE22=When The Saints Go Marching In
TTITLE23=Lawyer Clark Blues
TTITLE24=Little Laura Blues
TTITLE25=Working Man Blues
EXTD=
EXTT0=
EXTT1=
EXTT2=
EXTT3=
EXTT4=
EXTT5=
EXTT6=
EXTT7=
EXTT8=
EXTT9=
EXTT10=
EXTT11=
EXTT12=
EXTT13=
EXTT14=
EXTT15=
EXTT16=
EXTT17=
EXTT18=
EXTT19=
EXTT20=
EXTT21=
EXTT22=
EXTT23=
EXTT24=
EXTT25=
PLAYORDER=
